<svg width="308" height="120" viewBox="0 0 308 120" fill="none" xmlns="http://www.w3.org/2000/svg">
<path d="M69.04 43.36L56.96 88H41.84L34.8 59.04L27.52 88H12.48L0.32 43.36H14L20.32 75.28L27.84 43.36H42.32L49.92 75.12L56.16 43.36H69.04ZM71.5369 65.6C71.5369 61.0133 72.3902 56.9867 74.0969 53.52C75.8569 50.0533 78.2302 47.3867 81.2169 45.52C84.2035 43.6533 87.5369 42.72 91.2169 42.72C94.3635 42.72 97.1102 43.36 99.4569 44.64C101.857 45.92 103.697 47.6 104.977 49.68V43.36H118.657V88H104.977V81.68C103.644 83.76 101.777 85.44 99.3769 86.72C97.0302 88 94.2835 88.64 91.1369 88.64C87.5102 88.64 84.2035 87.7067 81.2169 85.84C78.2302 83.92 75.8569 81.2267 74.0969 77.76C72.3902 74.24 71.5369 70.1867 71.5369 65.6ZM104.977 65.68C104.977 62.2667 104.017 59.5733 102.097 57.6C100.23 55.6267 97.9369 54.64 95.2169 54.64C92.4969 54.64 90.1769 55.6267 88.2569 57.6C86.3902 59.52 85.4569 62.1867 85.4569 65.6C85.4569 69.0133 86.3902 71.7333 88.2569 73.76C90.1769 75.7333 92.4969 76.72 95.2169 76.72C97.9369 76.72 100.23 75.7333 102.097 73.76C104.017 71.7867 104.977 69.0933 104.977 65.68ZM153.434 76.4V88H146.474C141.514 88 137.647 86.8 134.874 84.4C132.1 81.9467 130.714 77.9733 130.714 72.48V54.72H125.274V43.36H130.714V32.48H144.394V43.36H153.354V54.72H144.394V72.64C144.394 73.9733 144.714 74.9333 145.354 75.52C145.994 76.1067 147.06 76.4 148.554 76.4H153.434ZM158.334 65.68C158.334 61.04 159.267 56.9867 161.134 53.52C163.054 50.0533 165.694 47.3867 169.054 45.52C172.467 43.6533 176.36 42.72 180.734 42.72C186.334 42.72 191 44.1867 194.734 47.12C198.52 50.0533 201 54.1867 202.174 59.52H187.614C186.387 56.1067 184.014 54.4 180.494 54.4C177.987 54.4 175.987 55.3867 174.494 57.36C173 59.28 172.254 62.0533 172.254 65.68C172.254 69.3067 173 72.1067 174.494 74.08C175.987 76 177.987 76.96 180.494 76.96C184.014 76.96 186.387 75.2533 187.614 71.84H202.174C201 77.0667 198.52 81.1733 194.734 84.16C190.947 87.1467 186.28 88.64 180.734 88.64C176.36 88.64 172.467 87.7067 169.054 85.84C165.694 83.9733 163.054 81.3067 161.134 77.84C159.267 74.3733 158.334 70.32 158.334 65.68ZM236.931 42.88C242.051 42.88 246.158 44.5867 249.251 48C252.345 51.36 253.891 56 253.891 61.92V88H240.291V63.76C240.291 60.7733 239.518 58.4533 237.971 56.8C236.425 55.1467 234.345 54.32 231.731 54.32C229.118 54.32 227.038 55.1467 225.491 56.8C223.945 58.4533 223.171 60.7733 223.171 63.76V88H209.491V28.8H223.171V49.36C224.558 47.3867 226.451 45.8133 228.851 44.64C231.251 43.4667 233.945 42.88 236.931 42.88ZM268.358 37.04C266.971 37.04 265.798 36.56 264.838 35.6C263.878 34.64 263.398 33.4667 263.398 32.08C263.398 30.6933 263.878 29.52 264.838 28.56C265.798 27.6 266.971 27.12 268.358 27.12C269.691 27.12 270.811 27.6 271.718 28.56C272.678 29.52 273.158 30.6933 273.158 32.08C273.158 33.4667 272.678 34.64 271.718 35.6C270.811 36.56 269.691 37.04 268.358 37.04ZM271.878 44.16V88H264.598V44.16H271.878ZM293.165 50.16V76C293.165 78.1333 293.618 79.6533 294.525 80.56C295.432 81.4133 297.005 81.84 299.245 81.84H304.605V88H298.045C293.992 88 290.952 87.0667 288.925 85.2C286.898 83.3333 285.885 80.2667 285.885 76V50.16H280.205V44.16H285.885V33.12H293.165V44.16H304.605V50.16H293.165Z" fill="white"/>
<rect width="255" height="20" fill="white"/>
</svg>
